<svg xmlns="http://www.w3.org/2000/svg" fill="none" viewBox="0 0 40.171 40.13888888888889" style="max-height: 500px" width="40.171" height="40.13888888888889">
<path fill="#3673F5" d="M52.7998 30.3361V9.6001H57.2062V30.3361H52.7998Z"/>
<path fill="#3673F5" d="M63.1352 30.3361V9.6001H67.7432L79.3496 23.4241V9.6001H83.8712V30.3361H79.2632L67.5992 16.4545V30.3361H63.1352Z"/>
<path fill="#3673F5" d="M94.8161 30.3361C94.0289 30.3361 93.3089 30.1441 92.6561 29.7601C92.0225 29.3761 91.5137 28.8673 91.1297 28.2337C90.7457 27.5809 90.5537 26.8609 90.5537 26.0737V13.8625C90.5537 13.0753 90.7457 12.3649 91.1297 11.7313C91.5137 11.0785 92.0225 10.5601 92.6561 10.1761C93.3089 9.7921 94.0289 9.6001 94.8161 9.6001H111.232V14.0929H95.9681C95.6609 14.0929 95.4209 14.1697 95.2481 14.3233C95.0945 14.4769 95.0177 14.7169 95.0177 15.0433V24.8929C95.0177 25.2001 95.0945 25.4401 95.2481 25.6129C95.4209 25.7665 95.6609 25.8433 95.9681 25.8433H111.232V30.3361H94.8161Z"/>
<path fill="#3673F5" d="M121.896 30.3361C121.128 30.3361 120.417 30.1441 119.765 29.7601C119.112 29.3761 118.593 28.8577 118.209 28.2049C117.825 27.5521 117.633 26.8417 117.633 26.0737V13.8625C117.633 13.0753 117.825 12.3649 118.209 11.7313C118.593 11.0785 119.112 10.5601 119.765 10.1761C120.417 9.7921 121.128 9.6001 121.896 9.6001H134.107C134.875 9.6001 135.576 9.7921 136.209 10.1761C136.862 10.5601 137.381 11.0785 137.765 11.7313C138.168 12.3649 138.369 13.0753 138.369 13.8625V26.0737C138.369 26.8417 138.168 27.5521 137.765 28.2049C137.381 28.8577 136.862 29.3761 136.209 29.7601C135.576 30.1441 134.875 30.3361 134.107 30.3361H121.896ZM122.097 25.8433H133.848V14.0929H122.097V25.8433Z"/>
<path fill="#3673F5" d="M0 6.4C0 2.86538 2.86538 0 6.4 0H33.6C37.1346 0 40 2.86538 40 6.4V33.6C40 37.1346 37.1346 40 33.6 40H6.4C2.86538 40 0 37.1346 0 33.6V6.4Z"/>
<path fill="white" d="M7.6001 27.5999L11.6321 12.3999H16.0001L11.9681 27.5999H7.6001Z"/>
<path fill="white" d="M16.0001 27.5999L20.0321 12.3999H24.4001L20.3681 27.5999H16.0001Z"/>
<path fill="white" d="M24.4001 27.5999L28.4321 12.3999H32.8001L28.7681 27.5999H24.4001Z"/>
</svg>